<svg xmlns="http://www.w3.org/2000/svg" viewBox="0 0 32 32" width="32" height="32" shape-rendering="crispEdges">
  <!-- transparent canvas -->
  <rect width="32" height="32" fill="none"/>

  <!-- outer border/shadow -->
  <rect x="2" y="6" width="28" height="20" fill="#4b3327"/>
  <!-- leather cover -->
  <rect x="3" y="7" width="26" height="18" fill="#6b4b3a"/>

  <!-- pages -->
  <rect x="5" y="9" width="22" height="14" fill="#f1e4c8"/>
  <!-- center spine/binding -->
  <rect x="15" y="9" width="2" height="14" fill="#8b6942"/>

  <!-- left-page text lines -->
  <rect x="7" y="11" width="7" height="1" fill="#a8a29e"/>
  <rect x="7" y="13" width="6" height="1" fill="#a8a29e"/>
  <rect x="7" y="15" width="7" height="1" fill="#a8a29e"/>
  <rect x="7" y="17" width="5" height="1" fill="#a8a29e"/>
  <rect x="7" y="19" width="6" height="1" fill="#a8a29e"/>

  <!-- right-page text lines -->
  <rect x="18" y="11" width="7" height="1" fill="#a8a29e"/>
  <rect x="18" y="13" width="6" height="1" fill="#a8a29e"/>
  <rect x="18" y="15" width="7" height="1" fill="#a8a29e"/>
  <rect x="18" y="17" width="5" height="1" fill="#a8a29e"/>

  <!-- red ribbon bookmark -->
  <rect x="14" y="7" width="2" height="10" fill="#dc2626"/>
  <path d="M14 17h2l-1 2z" fill="#991b1b"/>

  <!-- green quill feather -->
  <rect x="21" y="18" width="1" height="3" fill="#65a30d"/>
  <rect x="22" y="17" width="1" height="3" fill="#65a30d"/>
  <rect x="23" y="16" width="1" height="3" fill="#65a30d"/>
  <rect x="24" y="15" width="1" height="3" fill="#65a30d"/>
  <!-- quill tip -->
  <rect x="21" y="21" width="1" height="1" fill="#44403c"/>

  <!-- small star/sparkle (fantasy element) -->
  <rect x="10" y="20" width="1" height="1" fill="#84cc16"/>
  <rect x="9" y="21" width="3" height="1" fill="#84cc16"/>
  <rect x="10" y="22" width="1" height="1" fill="#84cc16"/>
</svg>